<?xml version="1.0" encoding="utf-8"?>
<!-- Generator: Adobe Illustrator 25.4.1, SVG Export Plug-In . SVG Version: 6.00 Build 0)  -->
<svg version="1.1" id="Capa_1" xmlns="http://www.w3.org/2000/svg" xmlns:xlink="http://www.w3.org/1999/xlink" x="0px" y="0px"
	 viewBox="0 0 120 40" enable-background="new 0 0 120 40" xml:space="preserve">
<g>
	<path d="M19.17,12c-0.32,0.38-0.72,0.9-1.2,1.55c-0.48,0.65-0.99,1.42-1.55,2.3c-0.55,0.88-1.07,1.84-1.55,2.87
		c-0.48,1.03-0.88,2.13-1.2,3.29c-0.32,1.16-0.48,2.34-0.48,3.54c0,0.26,0.02,0.45,0.05,0.57s0.07,0.22,0.12,0.3
		c0.04,0.08,0.08,0.14,0.12,0.2s0.05,0.14,0.05,0.26c0,0.1-0.1,0.13-0.29,0.08c-0.19-0.05-0.4-0.19-0.64-0.43
		c-0.23-0.23-0.45-0.55-0.64-0.96c-0.19-0.41-0.29-0.91-0.29-1.5c0-0.83,0.1-1.69,0.31-2.57c0.21-0.88,0.49-1.77,0.83-2.65
		c-0.8,0.76-1.5,1.52-2.11,2.27c-0.61,0.75-1.13,1.43-1.57,2.03c-0.44,0.6-0.81,1.08-1.09,1.46c-0.29,0.37-0.52,0.56-0.69,0.56
		c-0.19,0-0.41-0.07-0.66-0.21S6.23,24.62,6,24.39c-0.23-0.23-0.41-0.51-0.56-0.82c-0.15-0.31-0.22-0.65-0.22-1.01
		c0-0.35,0.13-0.79,0.38-1.34c0.25-0.55,0.57-1.13,0.96-1.74s0.83-1.23,1.31-1.85c0.48-0.62,0.96-1.17,1.43-1.66
		c0.47-0.49,0.91-0.9,1.33-1.21s0.75-0.47,0.99-0.47c0.52,0,0.98,0.18,1.39,0.55s0.76,0.76,1.05,1.2c0.45-0.88,0.91-1.71,1.36-2.47
		s0.88-1.43,1.26-2c0.38-0.57,0.7-1.02,0.96-1.35c0.26-0.33,0.41-0.49,0.44-0.49c0.28,0,0.52,0.07,0.72,0.22
		c0.2,0.15,0.36,0.31,0.48,0.49c0.12,0.18,0.21,0.36,0.27,0.55c0.06,0.18,0.09,0.32,0.09,0.4C19.65,11.41,19.49,11.62,19.17,12z
		 M7.72,23.5c0.4-0.51,0.91-1.14,1.52-1.9s1.3-1.56,2.07-2.4c0.76-0.85,1.54-1.61,2.34-2.29c0.03-0.07,0.06-0.13,0.08-0.18
		c-0.14-0.17-0.31-0.35-0.51-0.52c-0.2-0.17-0.42-0.26-0.66-0.26c-0.1,0-0.32,0.16-0.64,0.48c-0.32,0.32-0.69,0.73-1.09,1.23
		c-0.41,0.5-0.84,1.07-1.3,1.69c-0.46,0.62-0.88,1.24-1.25,1.85c-0.37,0.61-0.69,1.17-0.94,1.69c-0.25,0.52-0.38,0.94-0.38,1.25
		c0,0.09,0.03,0.13,0.08,0.13C7.1,24.27,7.32,24.01,7.72,23.5z"/>
	<path d="M25.69,14.16c0.19,0.09,0.37,0.22,0.55,0.39c0.17,0.17,0.32,0.38,0.44,0.61c0.12,0.23,0.18,0.5,0.18,0.79
		c0,0.5-0.13,1.04-0.39,1.61s-0.61,1.14-1.05,1.7c-0.44,0.56-0.95,1.12-1.53,1.66c-0.58,0.55-1.2,1.03-1.85,1.46
		s-1.31,0.78-1.99,1.08c-0.68,0.29-1.33,0.49-1.98,0.57c-0.45,0.81-0.83,1.52-1.13,2.13c-0.3,0.61-0.5,1.03-0.58,1.27
		c-0.19,0.8-0.29,1.52-0.29,2.16c0,0.36,0.06,0.58,0.17,0.66s0.17,0.17,0.17,0.27c0,0.21-0.1,0.28-0.29,0.22
		c-0.19-0.06-0.4-0.21-0.64-0.44c-0.23-0.23-0.45-0.52-0.64-0.87c-0.19-0.35-0.29-0.71-0.29-1.09c0-0.57,0.09-1.28,0.26-2.13
		c0.17-0.85,0.41-1.75,0.7-2.7c-0.24-0.17-0.43-0.37-0.56-0.58s-0.23-0.43-0.29-0.64c-0.06-0.21-0.1-0.4-0.12-0.57
		c-0.02-0.17-0.03-0.29-0.03-0.36c0-0.22,0.07-0.35,0.21-0.36c0.14-0.02,0.21,0.07,0.21,0.26c0,0.28,0.06,0.54,0.17,0.78
		c0.11,0.24,0.34,0.43,0.69,0.57c0.29-0.94,0.61-1.85,0.95-2.74c0.34-0.89,0.67-1.69,0.99-2.39c0.32-0.7,0.61-1.27,0.87-1.7
		c0.26-0.43,0.45-0.65,0.57-0.65c0.29,0,0.57,0.05,0.82,0.14c0.25,0.1,0.46,0.21,0.64,0.34s0.31,0.26,0.4,0.39
		c0.09,0.13,0.14,0.23,0.14,0.3c0,0.05-0.09,0.25-0.27,0.6c-0.18,0.35-0.42,0.8-0.72,1.35c-0.29,0.56-0.62,1.19-0.99,1.9
		c-0.36,0.71-0.72,1.46-1.07,2.26c0.03-0.03,0.07-0.05,0.1-0.05c0.47-0.87,1-1.79,1.61-2.76c0.61-0.97,1.23-1.87,1.86-2.69
		c0.63-0.82,1.25-1.51,1.86-2.05c0.61-0.55,1.14-0.82,1.61-0.82C25.33,14.03,25.5,14.07,25.69,14.16z M21.38,20.36
		c0.67-0.55,1.27-1.12,1.82-1.72c0.55-0.6,0.99-1.18,1.33-1.74c0.34-0.56,0.51-1.05,0.51-1.47c0-0.24-0.03-0.4-0.08-0.48
		c-0.05-0.08-0.12-0.12-0.21-0.12c-0.23,0-0.54,0.2-0.95,0.61c-0.41,0.41-0.85,0.94-1.34,1.6c-0.49,0.66-1,1.4-1.53,2.22
		c-0.54,0.82-1.06,1.66-1.56,2.51C20.04,21.38,20.72,20.9,21.38,20.36z"/>
	<path d="M32.8,24.13c0.06,0.11,0.12,0.2,0.18,0.26c0.06,0.06,0.12,0.1,0.18,0.12c0.06,0.02,0.09,0.04,0.09,0.08
		c0,0.16-0.1,0.23-0.29,0.22s-0.4-0.09-0.64-0.25s-0.45-0.38-0.64-0.68s-0.29-0.63-0.29-1.01c0-0.31,0.03-0.64,0.09-0.98
		c0.06-0.34,0.13-0.66,0.22-0.98c0.09-0.31,0.18-0.61,0.29-0.88s0.19-0.51,0.26-0.7c-0.59,0.52-1.16,1.1-1.7,1.76
		c-0.55,0.65-1.04,1.26-1.48,1.82c-0.44,0.56-0.83,1.04-1.16,1.42c-0.33,0.38-0.59,0.57-0.78,0.57c-0.19,0-0.39-0.06-0.6-0.19
		c-0.21-0.13-0.4-0.3-0.57-0.52s-0.32-0.46-0.43-0.73c-0.11-0.27-0.17-0.54-0.17-0.82c0-0.33,0.1-0.75,0.29-1.27
		c0.19-0.52,0.44-1.08,0.75-1.68c0.31-0.6,0.67-1.2,1.07-1.81c0.4-0.61,0.81-1.15,1.22-1.64c0.42-0.48,0.82-0.88,1.22-1.2
		s0.75-0.47,1.07-0.47c0.35,0,0.65,0.07,0.92,0.2c0.27,0.13,0.52,0.29,0.74,0.49c0.22,0.2,0.42,0.41,0.58,0.64
		c0.16,0.23,0.3,0.43,0.4,0.62c0.07,0.09,0.06,0.18-0.03,0.29c-0.09,0.1-0.18,0.1-0.29-0.03c-0.19-0.23-0.37-0.41-0.55-0.56
		C32.61,16.08,32.4,16,32.16,16c-0.17,0-0.41,0.14-0.7,0.42c-0.29,0.28-0.62,0.64-0.98,1.09c-0.36,0.45-0.71,0.95-1.08,1.49
		c-0.36,0.55-0.69,1.09-0.98,1.64c-0.29,0.55-0.52,1.06-0.72,1.53s-0.29,0.86-0.29,1.16c0,0.12,0.04,0.18,0.13,0.18
		c0.05,0,0.22-0.15,0.49-0.46c0.28-0.3,0.61-0.68,0.99-1.14c0.38-0.46,0.8-0.96,1.25-1.5c0.45-0.54,0.89-1.04,1.33-1.49
		c0.43-0.46,0.83-0.84,1.18-1.14s0.63-0.46,0.82-0.46c0.09,0,0.2,0.03,0.35,0.08c0.15,0.05,0.29,0.13,0.43,0.23s0.26,0.23,0.35,0.36
		c0.1,0.14,0.14,0.29,0.14,0.44c0,0.16-0.11,0.4-0.34,0.73c-0.23,0.33-0.48,0.72-0.75,1.17s-0.53,0.95-0.75,1.51
		c-0.23,0.55-0.34,1.14-0.34,1.77C32.71,23.85,32.74,24.01,32.8,24.13z"/>
	<path d="M45.33,11.72c0.94-0.15,1.69-0.28,2.25-0.39c0.55-0.11,0.94-0.19,1.16-0.22c0.22-0.03,0.32,0,0.32,0.1
		c0,0.16-0.21,0.35-0.62,0.58c-0.42,0.23-1,0.47-1.74,0.71c-0.75,0.24-1.62,0.47-2.63,0.69c-1.01,0.22-2.11,0.39-3.3,0.53
		c-0.52,0.92-1.05,1.91-1.59,2.98c-0.54,1.07-1.03,2.15-1.47,3.24s-0.81,2.17-1.09,3.22c-0.29,1.06-0.43,2.04-0.43,2.94
		c0,0.23,0.02,0.4,0.05,0.52c0.03,0.12,0.07,0.22,0.1,0.29c0.03,0.07,0.07,0.13,0.1,0.18s0.05,0.11,0.05,0.18
		c0,0.19-0.08,0.24-0.25,0.16c-0.17-0.09-0.34-0.26-0.53-0.52c-0.19-0.26-0.37-0.57-0.53-0.94c-0.16-0.36-0.25-0.74-0.25-1.12
		c0-0.64,0.09-1.4,0.27-2.26c0.18-0.87,0.42-1.79,0.71-2.76s0.63-1.96,1.01-2.98c0.38-1.01,0.78-1.99,1.2-2.92
		c-0.24,0.02-0.49,0.03-0.74,0.03c-0.25,0-0.5,0-0.74,0c-0.47,0-0.87-0.07-1.21-0.22c-0.34-0.15-0.51-0.39-0.51-0.74
		s0.06-0.62,0.18-0.82c0.12-0.2,0.28-0.3,0.47-0.3c0.09,0,0.15,0.01,0.19,0.04c0.04,0.03,0.11,0.06,0.2,0.1
		c0.09,0.04,0.23,0.08,0.44,0.1s0.52,0.04,0.94,0.04h1.59c0.29-0.62,0.58-1.2,0.87-1.73s0.55-0.98,0.79-1.37
		c0.24-0.38,0.46-0.68,0.65-0.9c0.19-0.22,0.34-0.32,0.44-0.32c0.33,0,0.6,0.06,0.82,0.17c0.22,0.11,0.39,0.25,0.52,0.4
		c0.13,0.16,0.23,0.31,0.29,0.46c0.06,0.15,0.09,0.26,0.09,0.32c0,0.04-0.16,0.31-0.47,0.83s-0.72,1.2-1.22,2.03
		C43.18,11.99,44.38,11.87,45.33,11.72z"/>
	<path d="M49.15,15.4c-0.13,0.21-0.29,0.47-0.47,0.79c-0.18,0.32-0.39,0.68-0.61,1.08c-0.23,0.4-0.43,0.81-0.61,1.24
		c-0.18,0.42-0.34,0.84-0.47,1.25c-0.13,0.41-0.19,0.78-0.19,1.11c0,0.12,0.01,0.21,0.04,0.27c0.03,0.06,0.05,0.1,0.08,0.13
		c0.03,0.03,0.05,0.05,0.06,0.08c0.02,0.03,0.03,0.07,0.03,0.14c0,0.07-0.08,0.09-0.25,0.07c-0.17-0.03-0.35-0.1-0.55-0.22
		s-0.38-0.3-0.55-0.53c-0.17-0.23-0.25-0.52-0.25-0.84c0-0.47,0.12-1.05,0.35-1.74c0.23-0.69,0.5-1.37,0.79-2.03
		c-0.36,0.35-0.78,0.79-1.25,1.33c-0.47,0.54-0.95,1.18-1.46,1.92c-0.5,0.75-1.01,1.6-1.51,2.56c-0.5,0.96-0.96,2.04-1.38,3.24v0.05
		c0,0.14-0.09,0.19-0.27,0.14s-0.38-0.15-0.6-0.33c-0.22-0.17-0.42-0.39-0.6-0.66c-0.18-0.27-0.27-0.56-0.27-0.87
		c0-0.09,0.06-0.29,0.17-0.61c0.11-0.32,0.26-0.71,0.43-1.17c0.17-0.46,0.36-0.96,0.55-1.5c0.19-0.54,0.37-1.06,0.55-1.56
		c0.17-0.5,0.32-0.96,0.43-1.38s0.17-0.74,0.17-0.96c0-0.29-0.03-0.47-0.08-0.53c-0.05-0.06-0.08-0.14-0.08-0.25
		c0-0.09,0.1-0.11,0.31-0.08s0.43,0.13,0.68,0.3c0.24,0.17,0.47,0.39,0.68,0.68c0.21,0.29,0.31,0.63,0.31,1.03
		c0,0.24-0.07,0.62-0.22,1.14c-0.15,0.52-0.33,1.09-0.53,1.72c0.31-0.55,0.66-1.13,1.04-1.73s0.8-1.19,1.26-1.78
		c0.46-0.59,0.95-1.15,1.48-1.68c0.53-0.53,1.09-0.99,1.68-1.39v0.03c0.02-0.02,0.05-0.03,0.1-0.03c0.09,0,0.2,0.04,0.33,0.1
		c0.13,0.07,0.26,0.17,0.39,0.29c0.13,0.12,0.24,0.26,0.34,0.4c0.1,0.15,0.14,0.3,0.14,0.46C49.35,15.08,49.28,15.2,49.15,15.4z"/>
	<path d="M55.23,16.26c0.35,0.4,0.53,0.9,0.53,1.51c0,0.4-0.1,0.86-0.29,1.38c-0.19,0.52-0.44,1.04-0.74,1.57
		c-0.3,0.53-0.66,1.04-1.07,1.55c-0.41,0.5-0.83,0.95-1.26,1.35c-0.43,0.4-0.87,0.72-1.3,0.96c-0.43,0.24-0.84,0.36-1.22,0.36
		c-0.21,0-0.44-0.09-0.7-0.26c-0.26-0.17-0.51-0.39-0.74-0.65c-0.23-0.26-0.43-0.55-0.58-0.87c-0.16-0.32-0.23-0.63-0.23-0.92
		c0-0.42,0.11-0.9,0.33-1.46c0.22-0.55,0.5-1.12,0.84-1.7c0.35-0.58,0.73-1.15,1.14-1.7c0.42-0.55,0.81-1.05,1.2-1.48
		c-0.29,0.09-0.49,0.15-0.57,0.2c-0.09,0.04-0.13,0.02-0.13-0.07c0-0.07,0.05-0.15,0.14-0.25c0.09-0.1,0.22-0.19,0.38-0.29
		c0.16-0.1,0.33-0.19,0.52-0.27c0.19-0.09,0.37-0.16,0.55-0.21c0.35-0.31,0.61-0.47,0.78-0.47s0.38,0.08,0.62,0.25
		c0.24,0.17,0.44,0.34,0.6,0.53C54.48,15.55,54.88,15.86,55.23,16.26z M50.46,23.49c0.36-0.21,0.74-0.49,1.13-0.83
		c0.39-0.35,0.78-0.75,1.16-1.2c0.38-0.45,0.72-0.91,1.03-1.37c0.3-0.46,0.55-0.91,0.73-1.35s0.27-0.84,0.27-1.18
		c0-0.29-0.03-0.58-0.1-0.86s-0.26-0.5-0.57-0.68c-0.16,0.14-0.39,0.36-0.69,0.68c-0.3,0.31-0.64,0.67-1,1.08
		c-0.36,0.41-0.74,0.85-1.12,1.33c-0.38,0.48-0.73,0.97-1.04,1.47c-0.31,0.5-0.57,1-0.77,1.48c-0.2,0.49-0.3,0.95-0.3,1.38
		c0,0.24,0.11,0.36,0.34,0.36C49.79,23.8,50.1,23.7,50.46,23.49z"/>
	<path d="M61.98,26.45c0.05,0.09,0.11,0.15,0.18,0.2s0.13,0.09,0.18,0.13s0.08,0.13,0.08,0.25s-0.1,0.17-0.3,0.13
		S61.71,27,61.47,26.8c-0.23-0.2-0.45-0.49-0.65-0.87s-0.3-0.86-0.3-1.43c0-0.61,0.08-1.26,0.23-1.95c0.16-0.69,0.35-1.39,0.6-2.09
		c0.24-0.7,0.52-1.39,0.82-2.05c0.3-0.67,0.6-1.28,0.9-1.83c-0.38,0.42-0.78,0.91-1.2,1.47c-0.42,0.56-0.83,1.15-1.25,1.75
		c-0.42,0.61-0.81,1.21-1.2,1.79c-0.38,0.59-0.73,1.12-1.04,1.59s-0.57,0.84-0.78,1.13s-0.35,0.43-0.42,0.43
		c-0.1,0-0.24-0.04-0.4-0.13c-0.17-0.09-0.33-0.22-0.48-0.39c-0.16-0.17-0.29-0.39-0.42-0.65c-0.12-0.26-0.18-0.56-0.18-0.91
		c0-0.33,0.07-0.74,0.21-1.24s0.32-1.01,0.53-1.56c0.22-0.55,0.46-1.1,0.72-1.65c0.26-0.55,0.51-1.05,0.75-1.5
		c0.24-0.44,0.46-0.8,0.64-1.08c0.18-0.28,0.31-0.42,0.38-0.42c0.28,0,0.52,0.06,0.74,0.18c0.22,0.12,0.4,0.26,0.55,0.42
		c0.15,0.16,0.26,0.31,0.33,0.46c0.07,0.15,0.09,0.25,0.05,0.3c-0.02,0.05-0.17,0.27-0.47,0.65c-0.29,0.38-0.62,0.87-0.96,1.47
		c-0.35,0.6-0.69,1.27-1.01,2.02c-0.33,0.75-0.55,1.51-0.65,2.29c1.02-1.59,1.96-2.94,2.81-4.03c0.85-1.09,1.59-1.98,2.21-2.65
		c0.73-0.8,1.39-1.45,1.97-1.95l-0.03,0.03c0.1-0.1,0.17-0.16,0.21-0.16c0.24,0,0.46,0.05,0.64,0.16s0.33,0.23,0.44,0.36
		c0.11,0.14,0.2,0.28,0.25,0.42c0.05,0.14,0.08,0.24,0.08,0.31c0,0.05-0.1,0.25-0.31,0.58c-0.21,0.34-0.47,0.78-0.78,1.31
		c-0.31,0.54-0.64,1.16-1,1.86c-0.36,0.7-0.69,1.43-1,2.2c-0.31,0.76-0.57,1.54-0.78,2.33c-0.21,0.79-0.31,1.54-0.31,2.25
		C61.9,26.22,61.93,26.37,61.98,26.45z"/>
	<path d="M74.32,16.25c0.25,0.11,0.49,0.26,0.71,0.46c0.23,0.19,0.42,0.41,0.57,0.65c0.16,0.24,0.23,0.49,0.23,0.73
		c0,0.45-0.18,1.08-0.55,1.88c-0.36,0.81-0.84,1.68-1.43,2.63c-0.59,0.95-1.25,1.9-1.99,2.87c-0.74,0.97-1.48,1.85-2.24,2.63
		c-0.75,0.78-1.47,1.42-2.16,1.92c-0.68,0.5-1.28,0.75-1.78,0.75c-0.28,0-0.54-0.07-0.79-0.21c-0.25-0.14-0.45-0.29-0.6-0.44
		c-0.15-0.16-0.21-0.3-0.2-0.44c0.02-0.14,0.16-0.21,0.42-0.21c0.5,0,1.09-0.27,1.75-0.81s1.37-1.22,2.09-2.05
		c-0.85,0.4-1.62,0.81-2.3,1.25s-1.21,0.78-1.57,1.04c-0.16,0.1-0.24,0.13-0.25,0.07c-0.01-0.06,0.02-0.13,0.09-0.22
		c0.09-0.12,0.2-0.25,0.34-0.38s0.28-0.25,0.42-0.35c0.73-0.57,1.47-1.08,2.24-1.53c0.76-0.45,1.43-0.8,2-1.04
		c0.48-0.64,0.95-1.31,1.39-2c0.44-0.69,0.84-1.37,1.21-2.04c0.36-0.67,0.67-1.3,0.92-1.91c0.25-0.61,0.42-1.14,0.51-1.61
		c-0.31,0.33-0.68,0.74-1.12,1.23c-0.43,0.49-0.89,1.02-1.38,1.57c-0.49,0.55-0.97,1.11-1.46,1.68c-0.49,0.56-0.93,1.07-1.34,1.51
		c-0.41,0.44-0.75,0.8-1.04,1.08c-0.29,0.28-0.48,0.42-0.59,0.42c-0.09,0-0.23-0.05-0.44-0.16c-0.21-0.1-0.42-0.26-0.62-0.47
		s-0.39-0.47-0.56-0.78c-0.16-0.31-0.25-0.68-0.25-1.09c0-0.28,0.12-0.68,0.35-1.21c0.23-0.53,0.55-1.11,0.94-1.74
		c0.39-0.63,0.83-1.28,1.33-1.95c0.49-0.67,1-1.27,1.51-1.82c0.51-0.55,1.01-0.99,1.51-1.34s0.93-0.52,1.31-0.52
		c0.24,0,0.47,0.06,0.69,0.18c0.22,0.12,0.42,0.27,0.6,0.44s0.35,0.36,0.49,0.57c0.15,0.21,0.27,0.41,0.38,0.6
		C73.85,16.08,74.07,16.14,74.32,16.25z M66.71,23.91c0.26-0.28,0.58-0.64,0.97-1.09c0.39-0.45,0.83-0.96,1.31-1.52
		c0.48-0.56,0.98-1.13,1.5-1.69c0.51-0.56,1.02-1.1,1.52-1.61s0.95-0.94,1.35-1.29c-0.05-0.17-0.14-0.36-0.27-0.56
		c-0.13-0.2-0.33-0.3-0.61-0.3c-0.14,0-0.39,0.18-0.75,0.55c-0.36,0.36-0.78,0.82-1.26,1.38c-0.48,0.56-0.97,1.17-1.47,1.83
		c-0.5,0.67-0.97,1.31-1.39,1.92c-0.42,0.62-0.78,1.16-1.05,1.64s-0.42,0.81-0.42,1c0,0.1,0.04,0.16,0.13,0.16
		C66.31,24.32,66.45,24.18,66.71,23.91z"/>
	<path d="M83.6,16.26c0.36,0.4,0.53,0.9,0.53,1.51c0,0.4-0.1,0.86-0.29,1.38c-0.19,0.52-0.44,1.04-0.74,1.57
		c-0.3,0.53-0.66,1.04-1.07,1.55c-0.41,0.5-0.83,0.95-1.26,1.35s-0.87,0.72-1.3,0.96c-0.43,0.24-0.84,0.36-1.22,0.36
		c-0.21,0-0.44-0.09-0.7-0.26s-0.51-0.39-0.74-0.65c-0.23-0.26-0.43-0.55-0.58-0.87S76,22.54,76,22.24c0-0.42,0.11-0.9,0.32-1.46
		c0.22-0.55,0.5-1.12,0.85-1.7c0.35-0.58,0.73-1.15,1.14-1.7c0.42-0.55,0.81-1.05,1.2-1.48c-0.29,0.09-0.49,0.15-0.57,0.2
		s-0.13,0.02-0.13-0.07c0-0.07,0.05-0.15,0.14-0.25c0.1-0.1,0.22-0.19,0.38-0.29c0.16-0.1,0.33-0.19,0.52-0.27
		c0.19-0.09,0.37-0.16,0.55-0.21c0.35-0.31,0.61-0.47,0.78-0.47c0.17,0,0.38,0.08,0.62,0.25c0.24,0.17,0.44,0.34,0.6,0.53
		C82.84,15.55,83.25,15.86,83.6,16.26z M78.83,23.49c0.36-0.21,0.74-0.49,1.13-0.83c0.39-0.35,0.78-0.75,1.16-1.2
		c0.38-0.45,0.72-0.91,1.03-1.37c0.3-0.46,0.55-0.91,0.73-1.35c0.18-0.44,0.27-0.84,0.27-1.18c0-0.29-0.04-0.58-0.1-0.86
		c-0.07-0.28-0.26-0.5-0.57-0.68c-0.16,0.14-0.39,0.36-0.69,0.68c-0.3,0.31-0.64,0.67-1,1.08c-0.36,0.41-0.74,0.85-1.12,1.33
		c-0.38,0.48-0.73,0.97-1.04,1.47c-0.31,0.5-0.57,1-0.77,1.48c-0.2,0.49-0.3,0.95-0.3,1.38c0,0.24,0.11,0.36,0.34,0.36
		C78.15,23.8,78.47,23.7,78.83,23.49z"/>
	<path d="M97.31,18.34c-0.31,0.52-0.65,1.14-1.03,1.87c-0.37,0.73-0.71,1.49-1.03,2.29c-0.31,0.8-0.47,1.5-0.47,2.11
		c0,0.16,0.01,0.27,0.04,0.34c0.03,0.07,0.05,0.12,0.08,0.16c0.03,0.04,0.05,0.07,0.08,0.09c0.03,0.03,0.04,0.08,0.04,0.17
		s-0.1,0.11-0.29,0.08c-0.19-0.03-0.39-0.13-0.61-0.27c-0.22-0.15-0.42-0.36-0.61-0.64c-0.19-0.28-0.29-0.62-0.29-1.04
		c0-0.36,0.06-0.78,0.18-1.26c0.12-0.48,0.28-0.97,0.48-1.5c0.2-0.52,0.42-1.04,0.66-1.56c0.24-0.52,0.48-1,0.7-1.43
		c-0.38,0.36-0.79,0.8-1.22,1.3c-0.43,0.5-0.87,1.05-1.3,1.64c-0.43,0.59-0.86,1.22-1.29,1.88c-0.42,0.67-0.82,1.36-1.18,2.07
		c0,0.16-0.07,0.19-0.22,0.09s-0.31-0.25-0.49-0.46c-0.18-0.21-0.35-0.45-0.49-0.71s-0.22-0.52-0.22-0.74c0-0.4,0.09-0.88,0.26-1.46
		c0.17-0.57,0.4-1.18,0.68-1.82c0.28-0.64,0.58-1.29,0.92-1.95c0.34-0.66,0.67-1.28,1-1.87c-0.5,0.61-0.99,1.24-1.46,1.91
		c-0.47,0.67-0.92,1.32-1.34,1.96c-0.43,0.64-0.82,1.25-1.17,1.83s-0.67,1.09-0.94,1.53c-0.27,0.44-0.49,0.79-0.66,1.05
		c-0.17,0.26-0.29,0.39-0.36,0.39c-0.1,0-0.25-0.09-0.43-0.26s-0.36-0.37-0.52-0.58c-0.17-0.22-0.31-0.43-0.43-0.65
		c-0.12-0.22-0.18-0.36-0.18-0.43c0-0.09,0.1-0.32,0.29-0.7c0.19-0.38,0.41-0.86,0.65-1.44c0.24-0.58,0.46-1.23,0.65-1.96
		c0.19-0.73,0.29-1.48,0.29-2.26c0-0.35-0.01-0.64-0.04-0.87c-0.03-0.23-0.14-0.46-0.35-0.66c-0.07-0.07-0.12-0.13-0.16-0.18
		c-0.04-0.1,0.07-0.16,0.31-0.16c0.21,0,0.44,0.08,0.7,0.23c0.26,0.16,0.51,0.36,0.74,0.6c0.23,0.24,0.43,0.52,0.58,0.83
		s0.23,0.62,0.23,0.91c0,0.5-0.09,1.08-0.27,1.73s-0.39,1.26-0.64,1.83c-0.26,0.69-0.56,1.39-0.91,2.08
		c0.81-1.44,1.65-2.75,2.5-3.93c0.85-1.18,1.64-2.2,2.37-3.07c0.83-1,1.65-1.91,2.44-2.7v0.03l0.03-0.03c0.16,0,0.32,0.04,0.49,0.13
		c0.17,0.09,0.33,0.2,0.48,0.34s0.26,0.29,0.35,0.45c0.09,0.17,0.13,0.32,0.13,0.46c0,0.07-0.16,0.38-0.48,0.92
		c-0.32,0.55-0.7,1.21-1.14,2c-0.44,0.79-0.9,1.64-1.38,2.56c-0.48,0.92-0.88,1.79-1.21,2.63c0.28-0.47,0.61-0.99,1-1.57
		c0.39-0.58,0.82-1.16,1.29-1.73c0.47-0.57,0.96-1.11,1.48-1.61c0.52-0.5,1.05-0.9,1.59-1.2c0.1-0.1,0.17-0.16,0.18-0.16h0.13h0.03
		V16c0.1,0.04,0.23,0.1,0.38,0.19c0.15,0.1,0.28,0.21,0.4,0.34c0.12,0.13,0.23,0.28,0.31,0.44c0.09,0.17,0.13,0.33,0.13,0.51
		C97.78,17.54,97.63,17.82,97.31,18.34z"/>
	<path d="M107.17,18.71c0.1-0.03,0.19-0.03,0.25,0.01s0.09,0.12,0.09,0.23s-0.05,0.23-0.16,0.35c-0.02,0.05-0.13,0.23-0.35,0.53
		c-0.22,0.3-0.51,0.67-0.87,1.09c-0.36,0.42-0.78,0.88-1.25,1.37c-0.47,0.49-0.96,0.93-1.48,1.34c-0.52,0.41-1.06,0.75-1.61,1.01
		s-1.09,0.4-1.61,0.4c-0.36,0-0.7-0.09-1.01-0.26c-0.31-0.17-0.58-0.4-0.82-0.68c-0.23-0.28-0.42-0.6-0.55-0.98
		c-0.13-0.37-0.19-0.75-0.19-1.13c0-0.5,0.12-1.04,0.36-1.63c0.24-0.58,0.55-1.16,0.92-1.74c0.37-0.58,0.79-1.14,1.25-1.68
		c0.46-0.54,0.91-1.01,1.35-1.43s0.84-0.75,1.21-1s0.64-0.38,0.83-0.38c0.24,0,0.49,0.05,0.74,0.14c0.25,0.1,0.47,0.25,0.66,0.47
		c0.19,0.22,0.35,0.5,0.47,0.84c0.12,0.35,0.18,0.76,0.18,1.25c0,0.49-0.17,1.03-0.52,1.64c-0.35,0.61-0.78,1.17-1.3,1.7
		c-0.52,0.53-1.09,0.98-1.7,1.34c-0.62,0.36-1.2,0.55-1.75,0.55c-0.1,0-0.2-0.01-0.3-0.03c-0.09-0.02-0.19-0.04-0.27-0.08
		c-0.05,0.1-0.1,0.26-0.13,0.47c-0.04,0.21-0.04,0.41-0.01,0.61c0.03,0.2,0.1,0.38,0.21,0.53c0.11,0.16,0.3,0.23,0.56,0.23
		c0.38,0,0.8-0.11,1.25-0.33c0.45-0.22,0.91-0.49,1.37-0.81c0.46-0.32,0.91-0.68,1.34-1.08c0.43-0.4,0.83-0.78,1.18-1.13
		c0.36-0.35,0.65-0.67,0.88-0.94c0.23-0.27,0.39-0.45,0.46-0.53C106.95,18.84,107.07,18.74,107.17,18.71z M103.67,16.61
		c-0.36,0.34-0.75,0.77-1.2,1.29c-0.44,0.52-0.88,1.09-1.33,1.72c-0.44,0.62-0.82,1.21-1.13,1.77c0.05,0,0.1,0,0.16,0.01
		c0.05,0.01,0.1,0.01,0.16,0.01c0.36,0,0.79-0.17,1.27-0.51c0.48-0.34,0.94-0.76,1.38-1.27c0.43-0.51,0.8-1.05,1.1-1.62
		c0.3-0.57,0.46-1.09,0.46-1.56c0-0.23-0.05-0.34-0.16-0.34C104.27,16.11,104.03,16.27,103.67,16.61z"/>
	<path d="M112.81,22.72c0.36,0.17,0.65,0.34,0.86,0.52c0.21,0.18,0.35,0.37,0.42,0.57c0.07,0.2,0.09,0.39,0.05,0.56
		c-0.04,0.22-0.11,0.4-0.23,0.53c-0.12,0.13-0.24,0.19-0.36,0.17c-0.07-0.02-0.1-0.07-0.1-0.16c0.02-0.07,0.07-0.12,0.16-0.14
		c0.09-0.03,0.15-0.1,0.18-0.22c0.02-0.1-0.08-0.21-0.29-0.33c-0.21-0.11-0.65-0.23-1.33-0.35c-0.73-0.12-1.51-0.15-2.35-0.08
		s-1.62,0.17-2.34,0.29c-0.72,0.12-1.33,0.24-1.85,0.36c-0.51,0.12-0.8,0.17-0.87,0.16c-0.33-0.05-0.42-0.52-0.29-1.4
		c0.02-0.02,0.03-0.04,0.03-0.05c0.07-0.16,0.24-0.37,0.51-0.64c0.27-0.27,0.6-0.57,0.99-0.9c0.39-0.33,0.82-0.68,1.29-1.05
		c0.47-0.37,0.95-0.74,1.43-1.1c1.13-0.85,2.38-1.76,3.77-2.73c-0.23-0.03-0.59-0.01-1.1,0.08c-0.51,0.09-1.04,0.19-1.57,0.3
		c-0.54,0.11-1.02,0.22-1.46,0.33s-0.7,0.15-0.81,0.13c-0.19-0.03-0.33-0.16-0.42-0.36c-0.09-0.21-0.1-0.54-0.03-0.99
		c0.03-0.14,0.23-0.28,0.57-0.43s0.78-0.27,1.29-0.38c0.51-0.1,1.05-0.18,1.62-0.22c0.57-0.04,1.09-0.02,1.56,0.06
		c0.16,0.02,0.33,0.11,0.53,0.29s0.39,0.37,0.57,0.6c0.18,0.23,0.33,0.46,0.44,0.69c0.11,0.23,0.15,0.43,0.12,0.59
		c-0.02,0.14-0.27,0.37-0.77,0.7c-0.49,0.33-1.09,0.72-1.79,1.18c-0.7,0.46-1.45,0.96-2.24,1.5c-0.79,0.54-1.49,1.08-2.09,1.64
		c0.66-0.1,1.38-0.17,2.17-0.21c0.79-0.03,1.56,0.01,2.3,0.13C111.97,22.43,112.45,22.56,112.81,22.72z"/>
</g>
<g>
</g>
<g>
</g>
<g>
</g>
<g>
</g>
<g>
</g>
<g>
</g>
</svg>
